<?xml version="1.0" standalone="no"?>
<!DOCTYPE svg PUBLIC "-//W3C//DTD SVG 20010904//EN"
 "http://www.w3.org/TR/2001/REC-SVG-20010904/DTD/svg10.dtd">
<svg version="1.0" xmlns="http://www.w3.org/2000/svg"
 width="376.000000pt" height="376.000000pt" viewBox="0 0 376.000000 376.000000"
 preserveAspectRatio="xMidYMid meet">
<metadata>
Created by potrace 1.14, written by Peter Selinger 2001-2017
</metadata>
<g transform="translate(0.000000,376.000000) scale(0.100000,-0.100000)"
fill="#000000" stroke="none">
<path d="M1683 3683 c-144 -19 -166 -23 -203 -35 -19 -6 -41 -12 -50 -12 -47
-4 -240 -77 -347 -132 -105 -53 -228 -128 -283 -171 -111 -87 -262 -231 -255
-243 7 -11 117 -9 138 2 10 5 44 33 75 62 170 159 335 262 546 343 88 33 250
76 331 87 22 3 57 9 78 12 76 12 278 11 373 -2 139 -19 139 -19 234 -44 47
-12 93 -23 104 -25 10 -2 23 -8 30 -13 9 -8 78 -34 96 -37 23 -4 192 -96 261
-142 103 -69 151 -107 240 -190 l66 -61 72 0 71 0 -31 37 c-154 177 -397 344
-649 446 -104 42 -281 93 -350 101 -19 3 -42 7 -50 9 -66 20 -373 25 -497 8z"/>
<path d="M3640 2643 c-28 -85 -92 -199 -223 -395 -76 -115 -142 -208 -147
-208 -4 0 -12 17 -18 38 -63 221 -167 429 -225 451 -31 12 -32 7 -6 -36 28
-44 33 -57 98 -253 27 -80 63 -174 79 -209 24 -49 29 -69 21 -83 -11 -21 -20
-23 -37 -6 -17 17 -25 3 -12 -21 8 -15 8 -27 0 -42 -11 -20 -12 -20 -31 -3
-61 55 -118 179 -174 378 -45 159 -85 250 -132 299 -45 45 -59 48 -38 6 18
-33 83 -229 90 -269 23 -132 133 -375 197 -439 l42 -41 -46 -87 c-100 -193
-137 -322 -133 -468 2 -97 9 -135 25 -135 4 0 7 35 7 78 1 142 67 337 185 544
7 12 53 81 101 153 302 444 363 558 402 747 8 42 -12 43 -25 1z"/>
<path d="M366 2618 c-61 -16 -162 -65 -154 -74 2 -1 37 7 78 18 150 41 352 24
478 -39 145 -73 210 -224 158 -371 -29 -81 -68 -125 -148 -167 -54 -29 -80
-32 -72 -10 7 17 -11 21 -21 5 -4 -6 -23 -17 -42 -25 -20 -9 -34 -17 -32 -19
2 -2 29 -6 60 -9 67 -6 101 -22 163 -79 70 -65 93 -123 95 -238 1 -86 -1 -101
-28 -155 -38 -78 -109 -150 -203 -203 -82 -46 -217 -98 -282 -108 -46 -6 -82
-22 -56 -25 18 -1 84 1 125 5 77 7 196 40 263 74 210 103 313 372 213 558 -35
67 -98 139 -130 149 -33 10 -25 28 24 54 53 28 105 83 136 143 17 32 23 63 25
123 1 44 -1 85 -4 90 -4 6 -8 19 -9 29 -6 38 -59 119 -104 159 -55 50 -153
100 -229 117 -91 21 -226 20 -304 -2z"/>
<path d="M1369 2613 c0 -5 -2 -35 -4 -68 -1 -33 -13 -105 -24 -160 -12 -55
-24 -111 -27 -124 -3 -13 -9 -31 -13 -40 -5 -9 -12 -29 -15 -46 -3 -16 -28
-106 -56 -200 -27 -93 -52 -182 -55 -197 -3 -15 -11 -56 -18 -90 -16 -75 -20
-276 -7 -335 16 -71 49 -149 82 -194 34 -46 53 -38 21 8 -19 28 -40 105 -48
179 -6 54 -6 212 -1 250 14 97 41 208 86 354 28 91 52 174 54 185 1 11 7 31
11 45 43 132 60 440 24 440 -5 0 -9 -3 -10 -7z"/>
<path d="M1870 2620 c-1 -3 -3 -30 -5 -60 -3 -66 -21 -166 -41 -236 -8 -28
-16 -60 -19 -70 -2 -11 -14 -53 -25 -94 -12 -41 -24 -82 -26 -90 -2 -8 -20
-69 -40 -135 -20 -66 -38 -133 -41 -150 -2 -16 -9 -47 -14 -67 -19 -74 -27
-263 -14 -338 16 -95 53 -181 100 -235 25 -29 26 -29 19 -5 -4 14 -12 29 -19
35 -28 24 -48 151 -47 311 0 120 6 166 33 270 11 44 22 86 24 95 2 9 11 38 20
65 31 91 85 294 101 377 21 106 25 266 8 304 -7 15 -13 26 -14 23z"/>
<path d="M3678 2573 c-3 -21 -13 -55 -21 -76 -9 -20 -17 -41 -17 -45 -3 -16
-123 -238 -138 -254 -8 -10 -12 -18 -9 -18 4 0 -30 -57 -75 -127 -88 -138
-192 -319 -203 -352 -3 -12 -2 -21 3 -21 25 0 283 351 391 531 70 118 127 399
82 399 -5 0 -11 -17 -13 -37z"/>
<path d="M2836 2592 c-3 -5 3 -15 13 -24 29 -24 77 -115 126 -237 25 -62 45
-117 45 -122 0 -20 74 -158 87 -164 12 -4 13 4 8 42 -3 27 -11 66 -17 88 -5
22 -11 47 -13 55 -11 52 -50 180 -63 205 -26 53 -75 107 -121 137 -48 30 -57
33 -65 20z"/>
<path d="M1426 2470 c1 -102 -33 -294 -85 -485 -37 -133 -61 -295 -43 -295 17
0 128 308 173 475 20 77 24 289 6 313 -5 6 -7 12 -3 12 4 0 0 13 -9 30 -8 16
-15 33 -15 37 1 5 -5 9 -12 11 -10 2 -13 -20 -12 -98z"/>
<path d="M1924 2487 c0 -80 -9 -170 -18 -198 -3 -8 -8 -32 -11 -54 -3 -22 -23
-114 -45 -205 -48 -206 -68 -310 -62 -332 2 -10 20 -22 41 -28 20 -5 62 -26
94 -45 32 -19 60 -35 63 -35 9 0 158 -112 207 -156 57 -51 202 -154 217 -154
28 0 -3 38 -148 181 -166 164 -220 201 -313 215 -24 4 -49 11 -56 16 -7 5 -16
7 -21 5 -4 -3 -13 -2 -20 2 -35 22 108 209 238 311 63 50 169 123 204 140 57
29 223 145 285 200 58 52 141 164 141 192 0 7 -22 -11 -49 -39 -67 -71 -207
-173 -381 -278 -80 -48 -166 -106 -192 -127 -27 -22 -52 -37 -57 -34 -5 4 -5
22 0 45 14 65 19 204 8 246 -13 49 -24 33 -33 -50 -11 -96 -13 -112 -25 -148
-7 -19 -13 -43 -15 -53 -18 -88 -44 -162 -72 -206 -18 -29 -33 -48 -33 -43 0
12 32 106 41 121 4 6 9 22 12 37 2 14 17 66 32 114 24 76 28 104 28 208 0 93
-5 132 -20 174 -10 30 -23 56 -29 58 -6 2 -10 -29 -11 -80z"/>
<path d="M365 2540 c-103 -22 -127 -32 -202 -82 -53 -36 -70 -55 -92 -102 -2
-5 9 0 25 11 124 88 344 130 499 96 185 -41 270 -117 264 -235 -3 -55 5 -69
21 -38 32 59 7 178 -51 239 -41 45 -140 96 -203 106 -21 3 -48 8 -60 11 -50
12 -127 10 -201 -6z"/>
<path d="M2708 2448 c-65 -85 -206 -209 -343 -303 -151 -104 -242 -192 -167
-164 40 15 173 81 202 100 14 9 59 38 100 64 41 26 96 69 121 95 43 44 96 126
104 160 13 57 17 80 12 80 -2 0 -16 -15 -29 -32z"/>
<path d="M365 2429 c-78 -11 -169 -44 -222 -81 -43 -29 -73 -68 -53 -68 5 0
10 3 10 8 0 10 58 41 87 46 12 3 31 9 42 15 59 32 57 16 -31 -274 -89 -287
-115 -408 -122 -565 -6 -113 27 -251 76 -322 24 -34 23 -40 -9 -68 -19 -16
-23 -25 -14 -28 7 -2 32 14 54 35 52 49 116 88 323 191 217 110 283 178 286
295 1 77 -58 157 -131 177 -44 12 -136 13 -159 1 -36 -18 -72 -22 -72 -8 0 27
79 52 160 51 166 -3 250 -92 237 -249 -6 -81 -46 -157 -115 -222 -59 -56 -53
-69 16 -33 55 29 118 93 147 150 37 73 38 175 2 253 -50 110 -126 159 -251
160 -68 1 -90 -3 -134 -25 -29 -14 -55 -22 -57 -18 -6 10 6 19 81 62 76 45
101 64 191 155 55 55 75 83 86 120 16 54 8 113 -22 153 -30 41 -113 76 -210
89 -97 12 -110 12 -196 0z m190 -64 c22 -4 56 -11 75 -18 19 -6 38 -10 41 -10
3 1 20 -11 37 -26 27 -25 30 -34 27 -73 -3 -55 -33 -103 -111 -184 -61 -61
-143 -124 -164 -124 -6 0 -9 8 -6 18 16 56 28 108 34 154 15 110 1 272 -22
247 -2 -2 -6 -38 -9 -79 -3 -41 -13 -94 -21 -117 -8 -24 -13 -43 -11 -43 2 0
-2 -18 -10 -40 -8 -22 -12 -40 -10 -40 2 0 -3 -19 -11 -42 -21 -61 -102 -366
-109 -412 -3 -21 -7 -42 -10 -46 -4 -7 -7 -27 -19 -150 -10 -96 9 -93 38 6 14
49 31 103 36 121 6 18 13 42 15 54 6 32 37 111 52 135 20 32 99 61 159 58 117
-5 186 -87 158 -185 -19 -63 -61 -103 -177 -168 -18 -10 -72 -40 -121 -67 -48
-27 -105 -64 -126 -82 -40 -34 -60 -40 -60 -19 0 6 -5 50 -11 97 -6 47 -11 94
-12 104 -4 35 -27 30 -28 -6 -3 -96 0 -159 10 -194 13 -46 -3 -72 -19 -30 -46
122 -41 378 11 576 11 41 22 86 25 99 3 13 9 32 14 41 5 9 11 28 14 41 2 13
13 51 24 84 24 72 60 211 68 262 7 46 12 55 26 47 5 -3 7 -16 4 -29 -3 -12 -8
-40 -11 -61 -4 -21 -10 -55 -15 -74 -5 -19 -11 -51 -14 -70 -3 -19 -13 -60
-21 -90 -51 -184 -78 -356 -55 -348 7 2 21 26 31 54 77 217 126 362 126 374 0
8 8 40 16 70 9 30 18 87 21 125 2 39 5 70 5 70 18 0 86 -6 116 -10z"/>
<path d="M1530 2378 c-1 -35 -30 -217 -39 -241 -6 -15 -8 -27 -6 -27 2 0 0
-12 -6 -27 -9 -23 -45 -153 -54 -193 -2 -8 -10 -34 -19 -57 -8 -24 -13 -43
-11 -43 2 0 -3 -16 -11 -35 -8 -20 -16 -48 -18 -63 -2 -15 -9 -52 -15 -82 -29
-147 -31 -157 -35 -221 -6 -79 17 -106 30 -36 2 13 13 50 24 82 12 33 22 65
24 70 1 6 14 48 29 95 39 127 105 388 112 445 4 28 9 53 11 56 2 4 6 42 10 85
3 44 6 81 7 84 4 17 -15 110 -23 115 -6 3 -10 0 -10 -7z"/>
<path d="M3704 2343 c-8 -35 -100 -211 -124 -238 -9 -11 -23 -31 -30 -44 -7
-14 -17 -30 -22 -35 -5 -6 -19 -27 -31 -47 -12 -21 -53 -84 -91 -140 -37 -57
-78 -120 -91 -139 -12 -19 -38 -61 -58 -92 -21 -31 -37 -59 -37 -62 0 -4 -10
-23 -23 -44 -23 -37 -107 -215 -107 -226 0 -21 26 5 77 76 132 185 154 218
219 318 229 357 319 532 339 658 8 47 -10 60 -21 15z"/>
<path d="M2663 2241 c-28 -33 -224 -181 -239 -181 -3 0 -20 -11 -38 -25 -18
-14 -36 -25 -40 -25 -10 0 -168 -108 -252 -171 -107 -81 -148 -139 -100 -139
20 0 86 -31 126 -60 45 -31 81 -63 209 -186 192 -183 284 -257 364 -292 44
-19 32 2 -45 80 -40 41 -103 106 -140 146 -74 80 -199 190 -261 229 -70 44
-190 103 -210 103 -32 0 -14 21 38 43 28 11 79 38 114 59 34 21 65 38 67 38 6
0 97 63 204 141 139 101 224 187 249 252 15 39 -7 34 -46 -12z"/>
<path d="M1956 1824 c-25 -25 -46 -50 -46 -56 0 -6 -8 -17 -17 -24 -14 -10
-15 -15 -6 -25 17 -17 63 -3 63 20 0 11 18 42 40 70 22 28 40 53 40 56 0 18
-35 -1 -74 -41z"/>
<path d="M1760 1640 c0 -5 13 -16 28 -24 52 -27 54 -35 37 -135 -17 -96 -17
-170 0 -161 5 3 11 13 12 24 4 27 52 188 57 193 8 9 35 -12 143 -114 185 -173
232 -209 373 -287 132 -72 296 -103 389 -73 81 25 57 52 -56 61 -32 3 -70 9
-83 14 -14 5 -37 12 -52 16 -42 10 -35 -16 10 -37 l37 -18 -35 6 c-33 5 -70
20 -167 67 -48 24 -136 93 -290 231 -171 153 -282 222 -385 242 -10 2 -18 0
-18 -5z m947 -546 c-3 -3 -12 -4 -19 -1 -8 3 -5 6 6 6 11 1 17 -2 13 -5z"/>
<path d="M1243 1454 c-3 -9 -3 -63 0 -120 4 -96 8 -109 38 -159 18 -30 37 -55
41 -55 12 0 19 18 9 24 -5 4 -17 31 -25 60 -16 54 -18 70 -31 199 -6 64 -19
85 -32 51z"/>
<path d="M1735 1412 c-9 -83 21 -242 46 -242 5 0 9 -6 9 -14 0 -14 27 -42 35
-35 2 2 -5 30 -16 61 -18 54 -22 76 -37 217 -9 84 -28 90 -37 13z"/>
<path d="M3076 1438 c-57 -88 -91 -297 -55 -333 15 -15 17 -10 22 57 8 89 16
138 28 159 4 9 11 31 14 49 3 18 10 41 15 51 22 40 1 55 -24 17z"/>
<path d="M360 1202 c-66 -25 -151 -76 -183 -111 -16 -17 -26 -31 -22 -31 3 0
36 18 72 40 37 22 72 40 78 40 7 0 27 8 46 17 19 10 39 18 44 19 22 4 64 31
58 37 -10 11 -45 7 -93 -11z"/>
<path d="M544 649 c-5 -9 104 -118 172 -174 27 -22 56 -47 64 -55 50 -50 314
-205 405 -238 17 -6 55 -20 85 -32 30 -12 62 -23 70 -25 8 -2 58 -15 110 -29
52 -14 115 -28 140 -30 25 -3 75 -9 112 -15 69 -10 391 -8 418 2 8 3 39 8 68
11 29 3 69 10 90 15 20 6 48 12 62 14 187 33 493 183 685 336 74 59 235 210
235 221 0 3 -31 6 -69 5 l-68 0 -68 -60 c-37 -33 -79 -69 -93 -80 -15 -11 -36
-28 -47 -37 -29 -27 -173 -121 -235 -155 -100 -53 -270 -116 -400 -148 -159
-39 -417 -56 -545 -35 -33 5 -84 12 -113 15 -47 5 -124 23 -231 54 -99 30
-356 147 -371 171 -3 4 -19 14 -37 23 -17 9 -37 22 -45 29 -7 7 -42 35 -78 63
-36 27 -67 52 -70 55 -3 3 -29 27 -57 54 -51 49 -53 49 -118 50 -37 1 -69 -2
-71 -5z"/>
</g>
</svg>
